<svg width="129" height="18" viewBox="0 0 129 18" fill="none" xmlns="http://www.w3.org/2000/svg">
<path d="M27.2734 0.53125H30.7432V17.6465H27.2734V0.53125Z" fill="#140F0F"/>
<path d="M44.0985 17.6453H40.6287V15.9769C39.8676 17.0797 38.489 17.8315 36.825 17.8315C34.1145 17.8315 32.2854 16.0939 32.2854 13.4184V5.46094H35.7785V12.5283C35.7785 13.8687 36.6114 14.7819 37.9182 14.7819C39.6773 14.7819 40.6287 13.351 40.6287 10.8138V5.46094H44.0985V17.6453Z" fill="#140F0F"/>
<path d="M45.875 0.53125H49.3448V17.6465H45.875V0.53125Z" fill="#140F0F"/>
<path d="M62.8473 17.6453H59.3775V15.9769C58.6164 17.0797 57.2378 17.8315 55.5738 17.8315C52.8633 17.8315 51.0342 16.0939 51.0342 13.4184V5.46094H54.5273V12.5283C54.5273 13.8687 55.3602 14.7819 56.667 14.7819C58.4261 14.7819 59.3775 13.351 59.3775 10.8138V5.46094H62.8473V17.6453Z" fill="#140F0F"/>
<path d="M64.4893 0.53125H67.9591V17.6465H64.4893V0.53125Z" fill="#140F0F"/>
<path d="M75.1866 5.27344C79.5109 5.27344 81.3903 8.48975 81.3903 11.3089C81.3903 11.871 81.3418 12.4578 81.3418 12.4578H72.5713C72.8567 14.0784 73.9283 14.972 75.5205 14.972C76.7088 14.972 77.5884 14.4543 77.8486 13.5873H81.3185C80.9361 16.2646 78.6079 17.8355 75.3984 17.8355C71.1927 17.8355 69.1248 14.5961 69.1248 11.5447C69.1248 8.51635 70.9791 5.27521 75.1866 5.27521V5.27344ZM77.6332 9.9933C77.5381 8.72734 76.6819 7.83372 75.1866 7.83372C73.8762 7.83372 72.9751 8.58549 72.6413 9.9933H77.6332Z" fill="#140F0F"/>
<path d="M82.6221 5.46138H86.0919V7.15287C86.8027 6.02521 87.9695 5.27344 89.585 5.27344C91.5344 5.27344 92.7461 6.05003 93.3653 7.45784C94.008 6.30713 95.4799 5.27344 97.4778 5.27344C100.161 5.27344 101.922 7.0128 101.922 9.36032V17.6476H98.4255V10.3674C98.4255 9.00571 97.6644 8.15996 96.3828 8.15996C94.8624 8.15996 94.0062 9.42769 94.0062 11.4241V17.6458H90.5364V10.3674C90.5364 9.00571 89.7753 8.15996 88.5152 8.15996C86.9714 8.15996 86.0919 9.45074 86.0919 11.4241V17.6458H82.6221V5.46138Z" fill="#140F0F"/>
<path d="M103.092 11.5429C103.092 7.94897 105.756 5.27344 109.486 5.27344C113.193 5.27344 115.903 7.92769 115.903 11.5429C115.903 15.183 113.193 17.8337 109.486 17.8337C105.756 17.8337 103.092 15.16 103.092 11.5429ZM112.363 11.5429C112.363 9.56954 111.175 8.20961 109.486 8.20961C107.727 8.20961 106.61 9.59436 106.61 11.5429C106.61 13.5146 107.727 14.8993 109.486 14.8993C111.198 14.8993 112.363 13.5146 112.363 11.5429Z" fill="#140F0F"/>
<path d="M117.19 5.46138H120.659V7.12982C121.421 6.02521 122.799 5.27344 124.463 5.27344C127.174 5.27344 129.003 7.0128 129.003 9.69011V17.6493H125.51V10.5802C125.51 9.23975 124.677 8.32663 123.37 8.32663C121.611 8.32663 120.659 9.75748 120.659 12.2947V17.6476H117.19V5.46138Z" fill="#140F0F"/>
<path d="M15.0869 13.1418C14.3673 14.2252 13.4525 14.8014 12.4302 14.8014C11.9833 14.8014 11.5118 14.6915 11.028 14.4752C10.516 14.2465 10.0656 13.828 9.75769 13.2961C9.45507 12.7642 9.33367 12.1915 9.41813 11.6755C9.52369 11.2252 9.75945 10.6099 10.0339 9.89716C10.743 8.04433 11.7194 5.50709 10.8767 4.26596C10.523 3.74291 9.88437 3.48759 8.92901 3.48582C7.97189 3.48936 7.33498 3.74468 6.97958 4.26596C6.14034 5.50709 7.11154 8.04433 7.8241 9.90071C8.09505 10.6099 8.33433 11.2252 8.43637 11.6826C8.52435 12.1933 8.40471 12.766 8.09681 13.2979C7.79419 13.8298 7.34202 14.2482 6.83003 14.477C6.34619 14.6933 5.87291 14.8032 5.42778 14.8032C4.40556 14.8032 3.48715 14.227 2.77459 13.1472L2.6919 12.9982C3.03322 13.1702 3.68421 13.4557 4.24722 13.4557C4.52696 13.4557 4.79263 13.3688 5.05479 13.195C6.4975 12.2269 6.00663 11.0638 5.0196 9.26418C4.60086 8.50177 4.17156 7.71454 3.97979 6.90071C3.77394 6.02837 3.58568 4.75532 4.33871 3.79255C4.68883 3.33865 5.22897 2.99113 5.93449 2.75709C6.66817 2.51064 7.61297 2.37943 8.74427 2.3617H9.11023C10.2415 2.37943 11.1863 2.51064 11.92 2.75709C12.6273 2.99113 13.1639 3.33865 13.5158 3.79255C14.2706 4.75355 14.0806 6.02837 13.8747 6.90071C13.6829 7.71454 13.2536 8.5 12.8349 9.26418C11.8479 11.0638 11.3535 12.2269 12.7997 13.195C13.0619 13.3706 13.324 13.4557 13.6073 13.4557C14.1703 13.4557 14.8178 13.1702 15.1626 12.9982L15.0834 13.1436L15.0869 13.1418ZM8.93077 0C3.99738 0 0 4.02837 0 9C0 13.9716 3.99738 18 8.93077 18C13.8642 18 17.8615 13.9681 17.8615 9C17.8615 4.03191 13.8642 0 8.93077 0Z" fill="#140F0F"/>
</svg>
