<svg viewBox="0 0 50 50" xmlns="http://www.w3.org/2000/svg">
  <path d="M25 50C38.8071 50 50 38.8071 50 25C50 11.1929 38.8071 0 25 0C11.1929 0 0 11.1929 0 25C0 38.8071 11.1929 50 25 50ZM35.102 35.0655C36.1247 36.3865 37.6914 37.1638 39.3547 37.1753C40.7054 37.1738 42.0063 36.6618 43 35.7406C41.5376 39.4627 37.6504 41.6083 33.7481 40.8475C29.8457 40.0866 27.0346 36.635 27.0573 32.6322C27.159 31.0388 27.5495 29.4777 28.2095 28.0259C28.6099 26.9523 29.0056 25.881 29.3966 24.812C30.3928 22.2957 31.1367 19.6854 31.6173 17.02C31.9455 14.9102 31.9106 12.3152 30.3115 10.6907C29.0894 9.44594 27.1969 9.11542 25.5 9.15761C23.8031 9.19981 21.9106 9.44595 20.6885 10.6837C19.0894 12.3152 19.0545 14.9032 19.3827 17.013C19.8629 19.6807 20.6068 22.2934 21.6034 24.812C21.9991 25.8763 22.3948 26.9476 22.7905 28.0259C23.4505 29.4777 23.841 31.0388 23.9427 32.6322C23.9654 36.635 21.1543 40.0866 17.2519 40.8475C13.3496 41.6083 9.46243 39.4627 8 35.7406C9.10783 36.7667 10.5912 37.2797 12.0912 37.1554C13.5913 37.0312 14.9715 36.2811 15.898 35.0866C17.0136 33.5673 17.3502 31.6064 16.8059 29.7981C16.4098 28.4242 15.7261 27.233 15.0281 26.017C14.7293 25.4964 14.4279 24.9713 14.1453 24.4253C11.0796 19.1509 11.2053 15.2056 11.2053 15.2056C11.2053 7.33618 18.6634 6 25.5 6C32.3366 6 39.7947 7.33618 39.7947 15.1845C39.7947 15.1845 39.9204 19.1298 36.8547 24.4042C36.5536 24.9973 36.2281 25.5596 35.9072 26.1142C35.2235 27.2955 34.5601 28.4418 34.1941 29.777C33.6498 31.5853 33.9864 33.5462 35.102 35.0655Z" fill="#D31334" />
</svg>
